<?xml version="1.0" encoding="utf-8"?><svg viewBox="0 0 22 23" xmlns="http://www.w3.org/2000/svg" xmlns:xlink="http://www.w3.org/1999/xlink"><style>:root>svg{display:none}:root>svg:target{display:block}</style><svg viewBox="0 0 11 17" id="facebook" xmlns="http://www.w3.org/2000/svg"><path fill-rule="evenodd" d="M7.093 16V9.7h2.04l.334-2.8H7.093V5.535c0-.721.02-1.436 1.095-1.436h1.088V2.098c0-.03-.935-.098-1.881-.098C5.42 2 4.183 3.16 4.183 5.29V6.9H2v2.8h2.183V16h2.91z"/></svg><svg viewBox="0 0 15 16" id="google" xmlns="http://www.w3.org/2000/svg"><path fill-rule="evenodd" d="M13.393 7.302H7.627c0 .6 0 1.8-.004 2.399h3.341c-.128.6-.582 1.439-1.223 1.861 0 0-.001.004-.003.003-.852.563-5.16-.687-5.58-1.893.002-.002.004-.019.005-.02-.263-.749-.263-1.75 0-2.35.34-1.102 4.964-2.364 5.84-1.546.116-.113 1.61-1.573 1.723-1.692-2.991-2.709-7.78-1.755-9.572 1.742l-.004.007a5.86 5.86 0 00.006 5.378l-.006.005a6.108 6.108 0 003.888 3.099c1.807.474 4.106.15 5.646-1.243l.002.002c1.305-1.176 2.117-3.178 1.707-5.752z"/></svg><svg viewBox="0 0 22 23" id="search" xmlns="http://www.w3.org/2000/svg"><path fill-rule="evenodd" fill="#b1b1b1" d="M19.726 19.332l-4.437-4.71a7.753 7.753 0 001.766-4.94C17.055 5.446 13.678 2 9.527 2 5.377 2 2 5.446 2 9.682c0 4.237 3.377 7.683 7.527 7.683 1.559 0 3.044-.48 4.313-1.39l4.471 4.746a.966.966 0 001.388.027c.39-.383.403-1.018.027-1.416zM9.527 4.004c3.068 0 5.564 2.547 5.564 5.678 0 3.132-2.496 5.679-5.564 5.679s-5.563-2.547-5.563-5.679c0-3.13 2.495-5.678 5.563-5.678z"/></svg><svg viewBox="0 0 16 14" id="twitter" xmlns="http://www.w3.org/2000/svg"><path fill-rule="evenodd" d="M6.088 13c4.906 0 7.59-8.143 7.581-8.263A5.54 5.54 0 0015 3.3a5.137 5.137 0 01-1.53.437 2.772 2.772 0 001.172-1.536 5.216 5.216 0 01-1.694.674c-1.01-1.118-4.76 1.569-4.545 2.534-2.145-.113-4.143-1.168-5.497-2.902-.708 1.269-.346 2.892.826 3.707a2.564 2.564 0 01-1.211-.347v.035c0 1.322.896 2.46 2.14 2.723a2.555 2.555 0 01-1.204.047c.349 1.131 1.35 1.907 2.491 1.929-.944.773-3.736 1.178-3.947 1.151a7.34 7.34 0 004.088 1.246V13z"/></svg></svg>