<?xml version="1.0" standalone="no"?>
<!DOCTYPE svg PUBLIC "-//W3C//DTD SVG 20010904//EN"
 "http://www.w3.org/TR/2001/REC-SVG-20010904/DTD/svg10.dtd">
<svg version="1.0" xmlns="http://www.w3.org/2000/svg"
 width="700.000000pt" height="700.000000pt" viewBox="0 0 700.000000 700.000000"
 preserveAspectRatio="xMidYMid meet">
<metadata>
Created by potrace 1.11, written by Peter Selinger 2001-2013
</metadata>
<g transform="translate(0.000000,700.000000) scale(0.100000,-0.100000)"
fill="#000000" stroke="none">
<path d="M3215 6989 c-1004 -86 -1899 -579 -2513 -1387 -373 -489 -613 -1100
-684 -1737 -17 -154 -17 -585 0 -730 44 -370 129 -694 269 -1020 276 -645 764
-1212 1365 -1586 447 -278 924 -443 1483 -511 130 -16 600 -16 730 0 451 55
818 163 1195 351 729 364 1312 973 1639 1714 144 325 238 675 283 1052 16 139
16 595 0 730 -41 342 -117 648 -232 935 -398 996 -1258 1774 -2280 2063 -268
76 -474 110 -788 133 l-93 7 3 -409 c3 -397 4 -410 25 -449 24 -46 54 -75 103
-101 33 -18 82 -19 960 -24 l925 -5 58 -28 c76 -38 147 -109 188 -188 32 -61
34 -70 34 -169 0 -98 -2 -110 -32 -173 -39 -82 -108 -152 -189 -193 l-59 -29
-2015 -5 -2015 -5 -57 -28 c-97 -47 -150 -135 -150 -245 -1 -120 77 -222 194
-257 44 -13 163 -15 847 -15 835 0 844 -1 931 -45 142 -72 234 -204 254 -365
l7 -56 89 -12 c247 -33 500 -162 685 -347 186 -185 305 -414 350 -672 22 -128
22 -1807 0 -1935 -79 -449 -407 -826 -842 -967 -140 -45 -214 -56 -383 -56
-168 0 -244 11 -380 55 -440 144 -766 516 -845 968 -23 131 -22 1820 0 1943
90 485 443 865 920 989 44 11 110 23 148 27 l67 6 -1 36 c-2 82 -59 172 -140
216 l-54 30 -840 5 -840 5 -56 23 c-114 46 -195 117 -245 215 -125 245 -15
534 244 639 l57 23 2010 5 2010 5 47 28 c57 33 99 99 106 166 8 84 -48 179
-127 214 -19 9 -283 13 -946 17 l-920 5 -65 31 c-113 53 -181 128 -219 242
-20 58 -21 83 -21 472 l0 410 -47 -1 c-27 -1 -93 -6 -148 -10z"/>
</g>
</svg>
